<svg xmlns="http://www.w3.org/2000/svg" viewBox="0 0 1200 630" role="img" aria-labelledby="title desc">
	<title id="title">CSS if function</title>
	<desc id="desc">An illustration showing conditional CSS branches.</desc>
	<rect width="1200" height="630" fill="hsl(32, 100%, 97%)" />
	<g fill="none" stroke="#ff1493" stroke-width="3" opacity="0.55">
		<path d="M210 315H395" />
		<path d="M805 215H990" />
		<path d="M805 415H990" />
		<path d="M395 315C510 315 500 215 615 215H805" />
		<path d="M395 315C510 315 500 415 615 415H805" />
	</g>
	<rect x="110" y="245" width="250" height="140" rx="24" fill="#fff" />
	<rect x="605" y="145" width="235" height="140" rx="24" fill="#f7ecff" />
	<rect x="605" y="345" width="235" height="140" rx="24" fill="#eafff3" />
	<rect x="930" y="160" width="160" height="110" rx="20" fill="#ff1493" opacity="0.9" />
	<rect x="930" y="360" width="160" height="110" rx="20" fill="#00b875" opacity="0.9" />
	<text x="235" y="315" fill="#111" font-family="ui-monospace, SFMono-Regular, Menlo, Consolas, monospace" font-size="46" font-weight="700" text-anchor="middle" dominant-baseline="middle">if()</text>
	<text x="722.5" y="215" fill="#111" font-family="ui-monospace, SFMono-Regular, Menlo, Consolas, monospace" font-size="34" font-weight="700" text-anchor="middle" dominant-baseline="middle">style()</text>
	<text x="722.5" y="415" fill="#111" font-family="ui-monospace, SFMono-Regular, Menlo, Consolas, monospace" font-size="34" font-weight="700" text-anchor="middle" dominant-baseline="middle">else</text>
</svg>
