<svg width="1440" height="700" viewBox="0 0 1440 700" fill="none" xmlns="http://www.w3.org/2000/svg">
<g clip-path="url(#clip0_450_21)">
<mask id="mask0_450_21" style="mask-type:luminance" maskUnits="userSpaceOnUse" x="0" y="0" width="1440" height="700">
<path d="M1440 0H0V700H1440V0Z" fill="white"/>
</mask>
<g mask="url(#mask0_450_21)">
<g filter="url(#filter0_f_450_21)">
<path d="M720 1160C1061.86 1160 1339 882.864 1339 541C1339 199.136 1061.86 -78 720 -78C378.136 -78 101 199.136 101 541C101 882.864 378.136 1160 720 1160Z" fill="url(#paint0_radial_450_21)" fill-opacity="0.5"/>
</g>
<path opacity="0.2" fill-rule="evenodd" clip-rule="evenodd" d="M-191 -25.0959C14.9171 -80.2713 232.833 65.2817 295.727 300.004C358.621 534.727 242.676 769.737 36.7608 824.919L-26.5835 588.515C64.7958 564.03 116.248 459.739 88.3382 355.577C60.428 251.415 -36.2791 186.824 -127.656 211.308L-191 -25.0959Z" fill="#7FBC8C"/>
<path opacity="0.2" d="M1206.43 -140L1297.35 -49.0742C1257.3 -9.02207 1257.31 55.9269 1297.37 95.9898C1337.43 136.053 1402.38 136.06 1442.43 96.0071L1533.36 186.931C1443.1 277.188 1296.75 277.172 1206.47 186.892C1116.19 96.6137 1116.17 -49.7437 1206.43 -140Z" fill="#7FBC8C"/>
<path opacity="0.7" d="M171 44L174.96 75.0402L206 79L174.96 82.9598L171 114L167.04 82.9598L136 79L167.04 75.0402L171 44Z" fill="#047857"/>
<path opacity="0.7" d="M1258 248L1261.96 279.04L1293 283L1261.96 286.96L1258 318L1254.04 286.96L1223 283L1254.04 279.04L1258 248Z" fill="#047857"/>
<path opacity="0.2" fill-rule="evenodd" clip-rule="evenodd" d="M1435.34 808.041C1459.25 705.455 1395.51 602.917 1292.97 579.017C1190.42 555.116 1087.91 618.903 1064 721.488L1167.28 745.56C1177.89 700.036 1223.38 671.729 1268.88 682.335C1314.39 692.942 1342.67 738.446 1332.06 783.969L1435.34 808.041Z" fill="#7FBC8C"/>
</g>
</g>
<defs>
<filter id="filter0_f_450_21" x="-99" y="-278" width="1638" height="1638" filterUnits="userSpaceOnUse" color-interpolation-filters="sRGB">
<feFlood flood-opacity="0" result="BackgroundImageFix"/>
<feBlend mode="normal" in="SourceGraphic" in2="BackgroundImageFix" result="shape"/>
<feGaussianBlur stdDeviation="100" result="effect1_foregroundBlur_450_21"/>
</filter>
<radialGradient id="paint0_radial_450_21" cx="0" cy="0" r="1" gradientUnits="userSpaceOnUse" gradientTransform="translate(720 601.449) rotate(-42.0057) scale(778.644 2794.35)">
<stop stop-color="#10B981" stop-opacity="0.08"/>
<stop offset="1" stop-color="#10B981" stop-opacity="0.1"/>
</radialGradient>
<clipPath id="clip0_450_21">
<rect width="1440" height="700" fill="white"/>
</clipPath>
</defs>
</svg>
